<svg width="35" height="30" viewBox="0 0 35 30" fill="none" xmlns="http://www.w3.org/2000/svg">
<g id="logos:google-gmail" clip-path="url(#clip0_83_28)">
<path id="Vector" d="M7.95457 29.8522V14.4776L3.76072 10.1155L0 7.69482V27.139C0 28.6403 1.06982 29.8522 2.38643 29.8522H7.95457Z" fill="#4285F4"/>
<path id="Vector_2" d="M27.0454 29.8523H32.6136C33.9341 29.8523 35 28.6358 35 27.1391V7.69507L30.7404 10.4677L27.0454 14.4777V29.8523Z" fill="#34A853"/>
<path id="Vector_3" d="M7.95445 14.4778L7.38379 8.47053L7.95445 2.72095L17.4999 10.8604L27.0453 2.72095L27.6837 8.16012L27.0453 14.4778L17.4999 22.6173L7.95445 14.4778Z" fill="#EA4335"/>
<path id="Vector_4" d="M27.0454 2.72078V14.4777L35 7.69487V4.07731C35 0.722128 31.6312 -1.19057 29.2728 0.82161L27.0454 2.72078Z" fill="#FBBC04"/>
<path id="Vector_5" d="M0 7.69495L3.65846 10.8146L7.95457 14.4777V2.72085L5.72715 0.821681C3.36465 -1.19065 0 0.722199 0 4.07723V7.69495Z" fill="#C5221F"/>
</g>
<defs>
<clipPath id="clip0_83_28">
<rect width="35" height="30" fill="white"/>
</clipPath>
</defs>
</svg>
