<svg width="35" height="35" viewBox="0 0 35 35" fill="none" xmlns="http://www.w3.org/2000/svg">
<g id="mdi:web">
<path id="Vector" d="M23.8584 20.4167C23.9751 19.4542 24.0626 18.4917 24.0626 17.5001C24.0626 16.5084 23.9751 15.5459 23.8584 14.5834H28.7876C29.0209 15.5167 29.1667 16.4938 29.1667 17.5001C29.1667 18.5063 29.0209 19.4834 28.7876 20.4167M21.2772 28.5251C22.1522 26.9063 22.823 25.1563 23.2897 23.3334H27.5917C26.1789 25.7663 23.9373 27.6092 21.2772 28.5251ZM20.9126 20.4167H14.0876C13.9417 19.4542 13.8542 18.4917 13.8542 17.5001C13.8542 16.5084 13.9417 15.5313 14.0876 14.5834H20.9126C21.0438 15.5313 21.1459 16.5084 21.1459 17.5001C21.1459 18.4917 21.0438 19.4542 20.9126 20.4167ZM17.5001 29.1084C16.2897 27.3584 15.3126 25.4188 14.7147 23.3334H20.2855C19.6876 25.4188 18.7105 27.3584 17.5001 29.1084ZM11.6667 11.6667H7.40841C8.80643 9.22701 11.0465 7.38106 13.7084 6.47508C12.8334 8.09383 12.1772 9.84383 11.6667 11.6667ZM7.40841 23.3334H11.6667C12.1772 25.1563 12.8334 26.9063 13.7084 28.5251C11.0517 27.6097 8.81467 25.7662 7.40841 23.3334ZM6.21258 20.4167C5.97925 19.4834 5.83341 18.5063 5.83341 17.5001C5.83341 16.4938 5.97925 15.5167 6.21258 14.5834H11.1417C11.0251 15.5459 10.9376 16.5084 10.9376 17.5001C10.9376 18.4917 11.0251 19.4542 11.1417 20.4167M17.5001 5.87716C18.7105 7.62716 19.6876 9.58133 20.2855 11.6667H14.7147C15.3126 9.58133 16.2897 7.62716 17.5001 5.87716ZM27.5917 11.6667H23.2897C22.8325 9.86076 22.1567 8.11732 21.2772 6.47508C23.9605 7.39383 26.1917 9.24591 27.5917 11.6667ZM17.5001 2.91675C9.4355 2.91675 2.91675 9.47925 2.91675 17.5001C2.91675 21.3678 4.4532 25.0771 7.18811 27.8121C8.54229 29.1662 10.1499 30.2404 11.9193 30.9733C13.6886 31.7062 15.585 32.0834 17.5001 32.0834C21.3678 32.0834 25.0771 30.547 27.8121 27.8121C30.547 25.0771 32.0834 21.3678 32.0834 17.5001C32.0834 15.585 31.7062 13.6886 30.9733 11.9193C30.2404 10.1499 29.1662 8.54229 27.8121 7.18811C26.4579 5.83392 24.8502 4.75972 23.0809 4.02684C21.3116 3.29396 19.4152 2.91675 17.5001 2.91675Z" fill="#5742F5"/>
</g>
</svg>
